<svg width="95" height="34" viewBox="0 0 95 34" fill="none" xmlns="http://www.w3.org/2000/svg">
<path d="M44.7012 1.21858H51.6172C53.0738 1.21858 54.1695 1.58034 54.9042 2.30386C55.6388 3.01469 56.0062 4.01746 56.0062 5.31218C56.0062 7.14002 55.2462 8.35858 53.7262 8.96786L56.3862 14.28H53.4032L51.1042 9.40578H47.4562V14.28H44.7012V1.21858ZM51.3702 7.10194C51.9655 7.10194 52.4215 6.94327 52.7382 6.62594C53.0548 6.30861 53.2132 5.87069 53.2132 5.31218C53.2132 4.75367 53.0548 4.3221 52.7382 4.01746C52.4215 3.71282 51.9655 3.5605 51.3702 3.5605H47.4562V7.10194H51.3702Z" fill="#191D30"/>
<path d="M62.2565 14.5085C60.5465 14.5085 59.2735 14.0833 58.4375 13.2328C57.6015 12.3824 57.1835 11.0623 57.1835 9.2725C57.1835 7.48274 57.6015 6.16263 58.4375 5.31218C59.2735 4.46173 60.5465 4.0365 62.2565 4.0365C63.9665 4.0365 65.2395 4.46173 66.0755 5.31218C66.9242 6.16263 67.3485 7.48274 67.3485 9.2725C67.3485 11.0623 66.9242 12.3824 66.0755 13.2328C65.2395 14.0833 63.9665 14.5085 62.2565 14.5085ZM62.2565 12.376C63.1052 12.376 63.7195 12.1348 64.0995 11.6525C64.4795 11.1575 64.6695 10.4149 64.6695 9.42482V9.12018C64.6695 8.1301 64.4795 7.39389 64.0995 6.91154C63.7195 6.4165 63.1052 6.16898 62.2565 6.16898C61.4079 6.16898 60.7935 6.4165 60.4135 6.91154C60.0462 7.39389 59.8625 8.1301 59.8625 9.12018V9.42482C59.8625 10.4149 60.0462 11.1575 60.4135 11.6525C60.7935 12.1348 61.4079 12.376 62.2565 12.376Z" fill="#191D30"/>
<path d="M72.8892 14.5085C71.2932 14.5085 70.0962 14.0833 69.2982 13.2328C68.5128 12.3824 68.1202 11.0623 68.1202 9.2725C68.1202 7.49543 68.5128 6.18167 69.2982 5.33122C70.0962 4.46807 71.2932 4.0365 72.8892 4.0365C74.2192 4.0365 75.2768 4.37922 76.0622 5.06466C76.8602 5.73741 77.2592 6.72749 77.2592 8.0349H74.6372C74.6372 7.42562 74.4788 6.95597 74.1622 6.62594C73.8455 6.29591 73.4022 6.1309 72.8322 6.1309C72.1228 6.1309 71.5972 6.38477 71.2552 6.8925C70.9258 7.38754 70.7612 8.1301 70.7612 9.12018V9.42482C70.7612 10.4149 70.9322 11.1638 71.2742 11.6715C71.6288 12.1666 72.1925 12.4141 72.9652 12.4141C73.5098 12.4141 73.9405 12.2491 74.2572 11.9191C74.5865 11.5763 74.7512 11.1067 74.7512 10.5101H77.2592C77.2592 11.8175 76.8665 12.8139 76.0812 13.4994C75.2958 14.1721 74.2318 14.5085 72.8892 14.5085Z" fill="#191D30"/>
<path d="M78.6262 14.28V0.514099H81.2292V8.24434L84.5352 4.26498H87.5372L84.2312 8.11106L87.7272 14.28H84.7442L82.5592 10.0341L81.2292 11.3288V14.28H78.6262Z" fill="#191D30"/>
<path d="M44.7012 20.2586H50.9142C52.3708 20.2586 53.4665 20.633 54.2012 21.3819C54.9358 22.1182 55.3032 23.1654 55.3032 24.5235C55.3032 25.8817 54.9168 26.9416 54.1442 27.7032C53.3842 28.4521 52.2442 28.8266 50.7242 28.8266H47.4562V33.32H44.7012V20.2586ZM50.6672 26.4847C51.2625 26.4847 51.7185 26.3133 52.0352 25.9706C52.3518 25.6279 52.5102 25.1455 52.5102 24.5235C52.5102 23.9143 52.3518 23.4446 52.0352 23.1146C51.7185 22.7719 51.2625 22.6005 50.6672 22.6005H47.4562V26.4847H50.6672Z" fill="#191D30"/>
<path d="M61.2175 33.5485C59.5075 33.5485 58.2345 33.1233 57.3985 32.2728C56.5625 31.4224 56.1445 30.1023 56.1445 28.3125C56.1445 26.5227 56.5625 25.2026 57.3985 24.3522C58.2345 23.5017 59.5075 23.0765 61.2175 23.0765C62.9275 23.0765 64.2005 23.5017 65.0365 24.3522C65.8851 25.2026 66.3095 26.5227 66.3095 28.3125C66.3095 30.1023 65.8851 31.4224 65.0365 32.2728C64.2005 33.1233 62.9275 33.5485 61.2175 33.5485ZM61.2175 31.416C62.0661 31.416 62.6805 31.1749 63.0605 30.6925C63.4405 30.1975 63.6305 29.4549 63.6305 28.4648V28.1602C63.6305 27.1701 63.4405 26.4339 63.0605 25.9515C62.6805 25.4565 62.0661 25.209 61.2175 25.209C60.3688 25.209 59.7545 25.4565 59.3745 25.9515C59.0071 26.4339 58.8235 27.1701 58.8235 28.1602V28.4648C58.8235 29.4549 59.0071 30.1975 59.3745 30.6925C59.7545 31.1749 60.3688 31.416 61.2175 31.416Z" fill="#191D30"/>
<path d="M67.7081 23.305H69.9311L70.1401 24.9234H70.2731C70.4885 24.3522 70.7671 23.9016 71.1091 23.5715C71.4511 23.2415 71.9008 23.0765 72.4581 23.0765C72.6988 23.0765 72.9078 23.1019 73.0851 23.1527C73.2751 23.1907 73.3955 23.2225 73.4461 23.2479V25.685H72.7241C71.8755 25.685 71.2611 25.9198 70.8811 26.3895C70.5011 26.8464 70.3111 27.5446 70.3111 28.4839V33.32H67.7081V23.305Z" fill="#191D30"/>
<path d="M78.5563 33.5485C76.9603 33.5485 75.7633 33.1233 74.9653 32.2728C74.18 31.4224 73.7873 30.1023 73.7873 28.3125C73.7873 26.5354 74.18 25.2217 74.9653 24.3712C75.7633 23.5081 76.9603 23.0765 78.5563 23.0765C79.8863 23.0765 80.944 23.4192 81.7293 24.1047C82.5273 24.7774 82.9263 25.7675 82.9263 27.0749H80.3043C80.3043 26.4656 80.146 25.996 79.8293 25.6659C79.5126 25.3359 79.0693 25.1709 78.4993 25.1709C77.79 25.1709 77.2643 25.4248 76.9223 25.9325C76.593 26.4275 76.4283 27.1701 76.4283 28.1602V28.4648C76.4283 29.4549 76.5993 30.2038 76.9413 30.7115C77.296 31.2066 77.8596 31.4541 78.6323 31.4541C79.177 31.4541 79.6076 31.2891 79.9243 30.9591C80.2537 30.6163 80.4183 30.1467 80.4183 29.5501H82.9263C82.9263 30.8575 82.5336 31.8539 81.7483 32.5394C80.963 33.2121 79.899 33.5485 78.5563 33.5485Z" fill="#191D30"/>
<path d="M84.2934 19.5541H86.8964V24.4664H87.0294C87.7894 23.5398 88.7647 23.0765 89.9554 23.0765C90.9814 23.0765 91.7857 23.3558 92.3684 23.9143C92.9637 24.4728 93.2614 25.3676 93.2614 26.5989V33.32H90.6584V27.1511C90.6584 26.5291 90.5127 26.0785 90.2214 25.7992C89.93 25.52 89.4994 25.3803 88.9294 25.3803C88.3467 25.3803 87.859 25.5898 87.4664 26.0087C87.0864 26.4148 86.8964 26.9226 86.8964 27.5319V33.32H84.2934V19.5541Z" fill="#191D30"/>
<g clip-path="url(#clip0)">
<path fill-rule="evenodd" clip-rule="evenodd" d="M27.132 8.83047L32.566 16.9809H27.151L16.283 33.3009H10.849L27.132 8.83047H21.698L5.434 33.32H0L21.717 0.679993L27.132 8.83047ZM0 25.1505V17L10.849 0.679993H16.283L0 25.1505ZM32.566 17L38 25.1505V33.3009L32.566 25.1505H27.132L32.566 17ZM27.132 25.1505L32.566 33.3009H21.717L27.132 25.1505Z" fill="#191D30"/>
</g>
<defs>
<clipPath id="clip0">
<rect width="38" height="32.64" fill="white" transform="translate(0 0.679993)"/>
</clipPath>
</defs>
</svg>
